<svg width="24" height="24" viewBox="0 0 24 24" fill="none" xmlns="http://www.w3.org/2000/svg">
<path d="M16.21 15.9999H7.79001C7.4576 16.0004 7.13184 15.9068 6.85045 15.7298C6.56907 15.5528 6.34355 15.2998 6.20001 14.9999C6.03198 14.6442 5.96726 14.2484 6.01323 13.8577C6.05919 13.4669 6.214 13.097 6.46001 12.7899L10.67 7.68995C10.8352 7.49932 11.0395 7.34643 11.269 7.24165C11.4984 7.13687 11.7477 7.08264 12 7.08264C12.2523 7.08264 12.5016 7.13687 12.7311 7.24165C12.9605 7.34643 13.1648 7.49932 13.33 7.68995L17.54 12.7899C17.786 13.097 17.9408 13.4669 17.9868 13.8577C18.0328 14.2484 17.968 14.6442 17.8 14.9999C17.6565 15.2998 17.4309 15.5528 17.1496 15.7298C16.8682 15.9068 16.5424 16.0004 16.21 15.9999Z" fill="#351102"/>
</svg>
