<svg width="44" height="44" viewBox="0 0 44 44" fill="none" xmlns="http://www.w3.org/2000/svg">
<path d="M13.1003 31.1074L20.9552 31.0805L38.0995 13.9548C38.7723 13.2763 39.1426 12.3751 39.1426 11.4165C39.1426 10.4579 38.7723 9.55674 38.0995 8.87817L35.2766 6.03108C33.9309 4.67396 31.5832 4.68114 30.2482 6.0257L13.1003 23.1549V31.1074ZM32.7597 8.56941L35.588 11.4111L32.7455 14.251L29.9225 11.4057L32.7597 8.56941ZM16.6602 24.6521L27.3932 13.9297L30.2162 16.7768L19.485 27.4956L16.6602 27.5045V24.6521Z" fill="black"/>
<path d="M9.54058 38.2646H34.4597C36.4229 38.2646 38.0195 36.6543 38.0195 34.6743V19.114L34.4597 22.7043V34.6743H15.1616C15.1153 34.6743 15.0673 34.6923 15.021 34.6923C14.9623 34.6923 14.9035 34.6761 14.843 34.6743H9.54058V9.54237H21.7278L25.2877 5.95209H9.54058C7.57731 5.95209 5.98071 7.56233 5.98071 9.54237V34.6743C5.98071 36.6543 7.57731 38.2646 9.54058 38.2646Z" fill="black"/>
</svg>
