<svg width="24" height="25" viewBox="0 0 24 25" fill="none" xmlns="http://www.w3.org/2000/svg">
<path d="M21.7099 20.79L17.9999 17.11C19.44 15.3144 20.1374 13.0353 19.9487 10.7413C19.76 8.44733 18.6996 6.31281 16.9854 4.77667C15.2713 3.24053 13.0337 2.41954 10.7328 2.4825C8.43194 2.54546 6.24263 3.48759 4.61505 5.11517C2.98747 6.74275 2.04534 8.93207 1.98237 11.2329C1.91941 13.5338 2.74041 15.7714 4.27655 17.4855C5.81269 19.1997 7.94721 20.2601 10.2412 20.4488C12.5352 20.6375 14.8143 19.9401 16.6099 18.5L20.2899 22.18C20.3829 22.2738 20.4935 22.3482 20.6153 22.3989C20.7372 22.4497 20.8679 22.4758 20.9999 22.4758C21.1319 22.4758 21.2626 22.4497 21.3845 22.3989C21.5063 22.3482 21.6169 22.2738 21.7099 22.18C21.8901 21.9936 21.9909 21.7444 21.9909 21.485C21.9909 21.2257 21.8901 20.9765 21.7099 20.79ZM10.9999 18.5C9.61544 18.5 8.26206 18.0895 7.11091 17.3203C5.95977 16.5511 5.06256 15.4579 4.53275 14.1788C4.00293 12.8997 3.86431 11.4923 4.13441 10.1344C4.4045 8.77653 5.07119 7.52925 6.05016 6.55028C7.02912 5.57131 8.27641 4.90463 9.63427 4.63453C10.9921 4.36443 12.3996 4.50306 13.6787 5.03287C14.9578 5.56268 16.051 6.45989 16.8202 7.61103C17.5894 8.76218 17.9999 10.1156 17.9999 11.5C17.9999 13.3565 17.2624 15.137 15.9497 16.4498C14.6369 17.7625 12.8564 18.5 10.9999 18.5Z" fill="#351102"/>
</svg>
